<svg width="24" height="24" viewBox="0 0 24 24" fill="none" xmlns="http://www.w3.org/2000/svg">
<g id="&#230;&#142;&#165;&#229;&#143;&#163;&#230;&#148;&#182;&#232;&#181;&#183;">
<path id="Vector" d="M7.30652 19.7471L7.30652 7.48484C7.30663 7.3793 7.33708 7.27601 7.39424 7.18728C7.45141 7.09856 7.53288 7.02814 7.62895 6.98442C7.72502 6.9407 7.83163 6.92553 7.93608 6.9407C8.04053 6.95588 8.13841 7.00076 8.21807 7.07001L15.2675 13.2012C15.3265 13.2528 15.3738 13.3165 15.4062 13.3879C15.4386 13.4594 15.4554 13.5369 15.4554 13.6153C15.4554 13.6937 15.4386 13.7713 15.4062 13.8427C15.3738 13.9141 15.3265 13.9778 15.2675 14.0295L8.21807 20.1606C8.13854 20.2302 8.04065 20.2754 7.9361 20.2909C7.83155 20.3064 7.72477 20.2914 7.6285 20.2478C7.53223 20.2042 7.45055 20.1338 7.39321 20.045C7.33588 19.9562 7.30532 19.8528 7.30518 19.7471H7.30652Z" fill="#262626"/>
</g>
</svg>
