<svg width="26" height="26" viewBox="0 0 26 26"  xmlns="http://www.w3.org/2000/svg">
<g id="&#228;&#186;&#145;&#229;&#143;&#176;_&#230;&#148;&#182;&#232;&#181;&#183;">
<path id="Vector" d="M11.3752 15.6V21.9375C11.3752 22.425 11.0502 22.75 10.5627 22.75C10.0752 22.75 9.7502 22.425 9.7502 21.9375V17.3875L4.7127 22.425C4.5502 22.75 4.2252 22.75 4.0627 22.75C3.9002 22.75 3.5752 22.75 3.4127 22.5875C3.0877 22.2625 3.0877 21.775 3.4127 21.45L8.6127 16.25H4.0627C3.5752 16.25 3.2502 15.925 3.2502 15.4375C3.2502 14.95 3.5752 14.625 4.0627 14.625H11.3752V15.6ZM21.9377 11.375C22.4252 11.375 22.7502 11.05 22.7502 10.5625C22.7502 10.075 22.4252 9.75 21.9377 9.75H17.3877L22.4252 4.7125C22.7502 4.3875 22.7502 3.9 22.4252 3.575C22.1002 3.25 21.6127 3.25 21.2877 3.575L16.2502 8.6125V4.0625C16.2502 3.575 15.9252 3.25 15.4377 3.25C14.9502 3.25 14.6252 3.575 14.6252 4.0625V11.375H21.9377ZM22.7502 15.4375C22.7502 14.95 22.4252 14.625 21.9377 14.625H14.6252V21.9375C14.6252 22.425 14.9502 22.75 15.4377 22.75C15.9252 22.75 16.2502 22.425 16.2502 21.9375V17.3875L21.2877 22.425C21.4502 22.5875 21.6127 22.5875 21.9377 22.5875C22.2627 22.5875 22.4252 22.5875 22.5877 22.425C22.9127 22.1 22.9127 21.6125 22.5877 21.2875L17.3877 16.25H21.9377C22.4252 16.25 22.7502 15.925 22.7502 15.4375ZM10.5627 3.25C10.0752 3.25 9.7502 3.575 9.7502 4.0625V8.6125L4.7127 3.4125C4.3877 3.25 3.7377 3.25 3.4127 3.4125C3.0877 3.575 3.2502 4.3875 3.4127 4.7125L8.6127 9.75H4.0627C3.5752 9.75 3.2502 10.075 3.2502 10.5625C3.2502 11.05 3.5752 11.375 4.0627 11.375H11.3752V4.0625C11.3752 3.575 11.0502 3.25 10.5627 3.25Z"/>
</g>
</svg>


