<svg width="24" height="24" viewBox="0 0 24 24"  xmlns="http://www.w3.org/2000/svg">
<g id="&#228;&#186;&#145;&#229;&#143;&#176;_&#229;&#177;&#149;&#229;&#188;&#128;" clip-path="url(#clip0_1701_755)">
<path id="Vector" d="M15.8277 18.5263L12.0232 22.3309L8.21861 18.5244C7.9574 18.2634 7.50419 18.2632 7.24242 18.5247C7.17821 18.5881 7.12722 18.6637 7.0924 18.747C7.05757 18.8303 7.03961 18.9197 7.03953 19.01C7.03954 19.1827 7.11042 19.3543 7.24744 19.5025L11.5379 23.7932C11.6668 23.9216 11.8446 23.995 12.0257 23.995C12.2071 23.995 12.3848 23.9213 12.5138 23.7927L16.8033 19.5028C16.9345 19.3725 17.0065 19.1989 17.0065 19.0139C17.0065 18.8311 16.9323 18.653 16.8042 18.5263C16.5427 18.2643 16.0881 18.2646 15.8277 18.5263ZM12.5152 0.199255C12.2584 -0.0600008 11.7921 -0.0594427 11.5379 0.198139L7.23851 4.49721C7.11014 4.63674 7.03954 4.80837 7.03953 4.98028C7.03953 5.16223 7.11153 5.3347 7.24242 5.46558C7.3733 5.59619 7.54661 5.66819 7.73051 5.66819C7.9147 5.66819 8.088 5.59619 8.21861 5.46558L12.0232 1.65991L15.8272 5.46363C16.0884 5.72623 16.5438 5.72484 16.8031 5.46502C16.9342 5.3347 17.0068 5.1614 17.0068 4.97609C17.0068 4.79107 16.9345 4.61749 16.8042 4.48772L12.5152 0.199255ZM5.67181 8.09386C5.67196 8.00335 5.65421 7.91371 5.61959 7.83008C5.58496 7.74646 5.53414 7.67051 5.47005 7.6066C5.40622 7.54171 5.33005 7.49024 5.24604 7.4552C5.16203 7.42017 5.07186 7.40229 4.98084 7.4026C4.79833 7.4026 4.62 7.47712 4.49274 7.60577L0.203721 11.8951C0.0737202 12.0246 0.000449602 12.2005 0 12.384C0 12.566 0.0739535 12.744 0.202884 12.8727L4.5014 17.17C4.64065 17.299 4.81256 17.3701 4.98474 17.3701C5.12102 17.3692 5.25399 17.3281 5.36696 17.2519C5.47993 17.1757 5.56786 17.0678 5.61971 16.9417C5.67156 16.8157 5.68501 16.6772 5.65838 16.5435C5.63176 16.4099 5.56624 16.287 5.47005 16.1905L1.66465 12.3868L5.46893 8.58223C5.53342 8.51833 5.58456 8.44225 5.61939 8.35841C5.65422 8.27457 5.67204 8.18465 5.67181 8.09386ZM23.7971 11.8962L19.5081 7.60688C19.3785 7.47674 19.2025 7.40336 19.0189 7.40288C18.8339 7.40288 18.66 7.47544 18.5311 7.60577C18.4666 7.66971 18.4155 7.74579 18.3807 7.82962C18.3459 7.91346 18.328 8.00336 18.3282 8.09414C18.3282 8.27833 18.4005 8.45163 18.5311 8.58223L22.3353 12.3868L18.5294 16.1911C18.4333 16.2877 18.368 16.4105 18.3415 16.5442C18.315 16.6778 18.3286 16.8163 18.3805 16.9422C18.4324 17.0682 18.5204 17.176 18.6334 17.2521C18.7464 17.3282 18.8793 17.3693 19.0155 17.3701C19.1877 17.3701 19.3593 17.299 19.5073 17.162L23.7971 12.8729C23.926 12.744 24 12.566 24 12.384C24 12.2015 23.9258 12.0234 23.7971 11.8962ZM12 16.4339C14.4474 16.4339 16.4383 14.4427 16.4383 11.995C16.4383 9.54781 14.4472 7.55665 12 7.55665C9.55256 7.55665 7.5614 9.54781 7.5614 11.995C7.5614 14.4424 9.55256 16.4339 12 16.4339Z" />
</g>
<defs>
<clipPath id="clip0_1701_755">
<rect width="24" height="24" />
</clipPath>
</defs>
</svg>
