<svg width="24" height="24" viewBox="0 0 24 24" fill="none" xmlns="http://www.w3.org/2000/svg">
<g id="&#229;&#136;&#160;&#233;&#153;&#164;">
<path id="Vector" d="M19.6875 6.75H16.125V5.4375C16.125 4.5 15.375 3.75 14.4375 3.75H9.5625C8.625 3.75 7.875 4.5 7.875 5.4375V6.75H4.3125C4.0125 6.75 3.75 7.0125 3.75 7.3125C3.75 7.6125 4.0125 7.875 4.3125 7.875H19.6875C19.9875 7.875 20.25 7.6125 20.25 7.3125C20.25 7.0125 19.9875 6.75 19.6875 6.75ZM9 6.75V5.4375C9 5.1375 9.2625 4.875 9.5625 4.875H14.4375C14.7375 4.875 15 5.1375 15 5.4375V6.75H9ZM17.775 9C17.475 9 17.2125 9.2625 17.2125 9.5625V18.075C17.2125 18.6375 16.7625 19.125 16.1625 19.125H7.8C7.2375 19.125 6.75 18.675 6.75 18.075V9.5625C6.75 9.2625 6.4875 9 6.1875 9C5.8875 9 5.625 9.2625 5.625 9.5625V18.075C5.625 19.275 6.6 20.25 7.8 20.25H16.2C17.4 20.25 18.375 19.275 18.375 18.075V9.5625C18.3375 9.2625 18.075 9 17.775 9Z" fill="#595959"/>
<path id="Vector_2" d="M10.4248 17.4375V9.5625C10.4248 9.2625 10.1623 9 9.8623 9C9.5623 9 9.2998 9.2625 9.2998 9.5625V17.4375C9.2998 17.7375 9.5623 18 9.8623 18C10.1623 18 10.4248 17.7375 10.4248 17.4375ZM14.6998 17.4375V9.5625C14.6998 9.2625 14.4373 9 14.1373 9C13.8373 9 13.5748 9.2625 13.5748 9.5625V17.4375C13.5748 17.7375 13.8373 18 14.1373 18C14.4373 18 14.6998 17.7375 14.6998 17.4375Z" fill="#595959"/>
</g>
</svg>
