<svg width="18" height="18" viewBox="0 0 18 18" fill="none" xmlns="http://www.w3.org/2000/svg">
<g id="&#232;&#174;&#190;&#229;&#164;&#135;&#231;&#174;&#161;&#231;&#144;&#134;">
<path id="Vector" d="M14.0625 12.9375H7.875C7.72582 12.9375 7.58274 12.9968 7.47725 13.1023C7.37176 13.2077 7.3125 13.3508 7.3125 13.5C7.3125 13.6492 7.37176 13.7923 7.47725 13.8977C7.58274 14.0032 7.72582 14.0625 7.875 14.0625H14.0625C14.2117 14.0625 14.3548 14.0032 14.4602 13.8977C14.5657 13.7923 14.625 13.6492 14.625 13.5C14.625 13.3508 14.5657 13.2077 14.4602 13.1023C14.3548 12.9968 14.2117 12.9375 14.0625 12.9375ZM14.0625 8.4375H7.875C7.72582 8.4375 7.58274 8.49676 7.47725 8.60225C7.37176 8.70774 7.3125 8.85082 7.3125 9C7.3125 9.14918 7.37176 9.29226 7.47725 9.39775C7.58274 9.50324 7.72582 9.5625 7.875 9.5625H14.0625C14.2117 9.5625 14.3548 9.50324 14.4602 9.39775C14.5657 9.29226 14.625 9.14918 14.625 9C14.625 8.85082 14.5657 8.70774 14.4602 8.60225C14.3548 8.49676 14.2117 8.4375 14.0625 8.4375ZM14.0625 3.9375H7.875C7.72582 3.9375 7.58274 3.99676 7.47725 4.10225C7.37176 4.20774 7.3125 4.35082 7.3125 4.5C7.3125 4.64918 7.37176 4.79226 7.47725 4.89775C7.58274 5.00324 7.72582 5.0625 7.875 5.0625H14.0625C14.2117 5.0625 14.3548 5.00324 14.4602 4.89775C14.5657 4.79226 14.625 4.64918 14.625 4.5C14.625 4.35082 14.5657 4.20774 14.4602 4.10225C14.3548 3.99676 14.2117 3.9375 14.0625 3.9375ZM5.34375 12.9375H4.21875C4.06957 12.9375 3.92649 12.9968 3.821 13.1023C3.71551 13.2077 3.65625 13.3508 3.65625 13.5C3.65625 13.6492 3.71551 13.7923 3.821 13.8977C3.92649 14.0032 4.06957 14.0625 4.21875 14.0625H5.34375C5.49293 14.0625 5.63601 14.0032 5.7415 13.8977C5.84699 13.7923 5.90625 13.6492 5.90625 13.5C5.90625 13.3508 5.84699 13.2077 5.7415 13.1023C5.63601 12.9968 5.49293 12.9375 5.34375 12.9375ZM5.34375 8.4375H4.21875C4.06957 8.4375 3.92649 8.49676 3.821 8.60225C3.71551 8.70774 3.65625 8.85082 3.65625 9C3.65625 9.14918 3.71551 9.29226 3.821 9.39775C3.92649 9.50324 4.06957 9.5625 4.21875 9.5625H5.34375C5.49293 9.5625 5.63601 9.50324 5.7415 9.39775C5.84699 9.29226 5.90625 9.14918 5.90625 9C5.90625 8.85082 5.84699 8.70774 5.7415 8.60225C5.63601 8.49676 5.49293 8.4375 5.34375 8.4375ZM5.34375 3.9375H4.21875C4.06957 3.9375 3.92649 3.99676 3.821 4.10225C3.71551 4.20774 3.65625 4.35082 3.65625 4.5C3.65625 4.64918 3.71551 4.79226 3.821 4.89775C3.92649 5.00324 4.06957 5.0625 4.21875 5.0625H5.34375C5.49293 5.0625 5.63601 5.00324 5.7415 4.89775C5.84699 4.79226 5.90625 4.64918 5.90625 4.5C5.90625 4.35082 5.84699 4.20774 5.7415 4.10225C5.63601 3.99676 5.49293 3.9375 5.34375 3.9375Z" fill="currentColor"/>
<path id="Vector_2" d="M15.1875 1.6875H2.8125C2.36495 1.6875 1.93572 1.86529 1.61926 2.18176C1.30279 2.49822 1.125 2.92745 1.125 3.375V14.625C1.125 15.0726 1.30279 15.5018 1.61926 15.8182C1.93572 16.1347 2.36495 16.3125 2.8125 16.3125H15.1875C15.6351 16.3125 16.0643 16.1347 16.3807 15.8182C16.6972 15.5018 16.875 15.0726 16.875 14.625V3.375C16.875 2.92745 16.6972 2.49822 16.3807 2.18176C16.0643 1.86529 15.6351 1.6875 15.1875 1.6875ZM15.75 14.625C15.75 14.7742 15.6907 14.9173 15.5852 15.0227C15.4798 15.1282 15.3367 15.1875 15.1875 15.1875H2.8125C2.66332 15.1875 2.52024 15.1282 2.41475 15.0227C2.30926 14.9173 2.25 14.7742 2.25 14.625V11.8125H14.0625C14.2117 11.8125 14.3548 11.7532 14.4602 11.6477C14.5657 11.5423 14.625 11.3992 14.625 11.25C14.625 11.1008 14.5657 10.9577 14.4602 10.8523C14.3548 10.7468 14.2117 10.6875 14.0625 10.6875H2.25V7.3125H14.0625C14.2117 7.3125 14.3548 7.25324 14.4602 7.14775C14.5657 7.04226 14.625 6.89918 14.625 6.75C14.625 6.60082 14.5657 6.45774 14.4602 6.35225C14.3548 6.24676 14.2117 6.1875 14.0625 6.1875H2.25V3.375C2.25 3.22582 2.30926 3.08274 2.41475 2.97725C2.52024 2.87176 2.66332 2.8125 2.8125 2.8125H15.1875C15.3367 2.8125 15.4798 2.87176 15.5852 2.97725C15.6907 3.08274 15.75 3.22582 15.75 3.375V14.625Z" fill="currentColor"/>
</g>
</svg>
