<svg width="16" height="16" viewBox="0 0 16 16" fill="none" xmlns="http://www.w3.org/2000/svg">
<g id="&#232;&#174;&#190;&#229;&#164;&#135;&#230;&#168;&#161;&#230;&#157;&#191;_&#233;&#128;&#137;&#228;&#184;&#173;">
<path id="Vector" d="M1.68938 9.54815H7.26312C7.44581 9.5481 7.621 9.47554 7.75021 9.34639C7.87942 9.21724 7.95206 9.04208 7.95219 8.85939V2.07643C7.95219 1.89363 7.87957 1.71833 7.75032 1.58907C7.62107 1.45982 7.44576 1.38721 7.26297 1.38721H1.68938C1.59885 1.38719 1.50921 1.405 1.42557 1.43963C1.34194 1.47425 1.26594 1.52502 1.20192 1.58902C1.13791 1.65302 1.08712 1.72901 1.05248 1.81264C1.01783 1.89627 1 1.9859 1 2.07643V8.85939C1.00012 9.04213 1.07281 9.21734 1.20209 9.3465C1.33136 9.47565 1.50664 9.54819 1.68938 9.54815ZM1.89609 2.61393C1.89609 2.5262 1.93094 2.44206 1.99298 2.38003C2.05501 2.31799 2.13915 2.28314 2.22688 2.28314H6.72563C6.81335 2.28314 6.89749 2.31799 6.95952 2.38003C7.02156 2.44206 7.05641 2.5262 7.05641 2.61393V8.32158C7.05641 8.40931 7.02156 8.49345 6.95952 8.55548C6.89749 8.61751 6.81335 8.65236 6.72563 8.65236H2.22688C2.13915 8.65236 2.05501 8.61751 1.99298 8.55548C1.93094 8.49345 1.89609 8.40931 1.89609 8.32158V2.61393ZM10.5884 9.54815H14.3072C14.4903 9.54815 14.6659 9.4754 14.7954 9.34591C14.9249 9.21642 14.9977 9.0408 14.9977 8.85768V7.1158C14.9977 6.93268 14.9249 6.75705 14.7954 6.62757C14.6659 6.49808 14.4903 6.42533 14.3072 6.42533H10.5884C10.4053 6.42533 10.2297 6.49808 10.1002 6.62757C9.97071 6.75705 9.89797 6.93268 9.89797 7.1158V8.85768C9.89797 9.0408 9.97071 9.21642 10.1002 9.34591C10.2297 9.4754 10.4053 9.54815 10.5884 9.54815ZM10.7937 7.65189C10.7937 7.60841 10.8023 7.56535 10.8189 7.52518C10.8356 7.48501 10.86 7.44851 10.8908 7.41779C10.9215 7.38706 10.9581 7.3627 10.9982 7.34612C11.0384 7.32953 11.0815 7.32103 11.125 7.32111H13.7719C13.8596 7.32111 13.9437 7.35595 14.0057 7.41795C14.0677 7.47996 14.1025 7.56405 14.1025 7.65174V8.32158C14.1025 8.40927 14.0677 8.49336 14.0057 8.55537C13.9437 8.61737 13.8596 8.65221 13.7719 8.65221H11.125C11.0373 8.65221 10.9532 8.61737 10.8912 8.55537C10.8292 8.49336 10.7944 8.40927 10.7944 8.32158L10.7937 7.65189ZM10.5884 4.48658H14.3072C14.4903 4.48658 14.6659 4.41384 14.7954 4.28435C14.9249 4.15486 14.9977 3.97924 14.9977 3.79611V2.05424C14.9977 1.87111 14.9249 1.69549 14.7954 1.566C14.6659 1.43652 14.4903 1.36377 14.3072 1.36377H10.5884C10.4053 1.36377 10.2297 1.43652 10.1002 1.566C9.97071 1.69549 9.89797 1.87111 9.89797 2.05424V3.79611C9.89797 3.97924 9.97071 4.15486 10.1002 4.28435C10.2297 4.41384 10.4053 4.48658 10.5884 4.48658ZM10.7937 2.59018C10.7937 2.5467 10.8023 2.50366 10.819 2.46351C10.8356 2.42335 10.86 2.38688 10.8908 2.35617C10.9216 2.32546 10.9581 2.30112 10.9983 2.28454C11.0385 2.26796 11.0815 2.25947 11.125 2.25955H13.7719C13.8596 2.25955 13.9437 2.29438 14.0057 2.35639C14.0677 2.41839 14.1025 2.50249 14.1025 2.59018V3.26002C14.1025 3.34771 14.0677 3.4318 14.0057 3.49381C13.9437 3.55581 13.8596 3.59064 13.7719 3.59064H11.125C11.0373 3.59064 10.9532 3.55581 10.8912 3.49381C10.8292 3.4318 10.7944 3.34771 10.7944 3.26002L10.7937 2.59018ZM14.2958 11.4822H1.70734C1.61446 11.4822 1.52248 11.5005 1.43667 11.536C1.35085 11.5715 1.27287 11.6236 1.20719 11.6893C1.1415 11.755 1.0894 11.8329 1.05385 11.9187C1.0183 12.0045 1 12.0965 1 12.1894V13.9219C1 14.1095 1.07451 14.2893 1.20713 14.422C1.33975 14.5546 1.51963 14.6291 1.70719 14.6291H14.2958C14.3886 14.6291 14.4806 14.6108 14.5664 14.5753C14.6522 14.5397 14.7302 14.4876 14.7958 14.422C14.8615 14.3563 14.9136 14.2783 14.9491 14.1925C14.9847 14.1067 15.003 14.0148 15.003 13.9219V12.1894C15.003 12.0018 14.9285 11.822 14.7958 11.6893C14.6632 11.5567 14.4833 11.4822 14.2958 11.4822ZM14.107 13.4011C14.107 13.4447 14.0984 13.4878 14.0818 13.528C14.0651 13.5683 14.0407 13.6048 14.0099 13.6356C13.9791 13.6664 13.9425 13.6908 13.9022 13.7075C13.862 13.7241 13.8189 13.7327 13.7753 13.7327H2.22766C2.1841 13.7327 2.14097 13.7241 2.10072 13.7075C2.06048 13.6908 2.02391 13.6664 1.99311 13.6356C1.9623 13.6048 1.93786 13.5683 1.92119 13.528C1.90452 13.4878 1.89594 13.4447 1.89594 13.4011V12.7097C1.89594 12.6217 1.93089 12.5374 1.9931 12.4751C2.05531 12.4129 2.13968 12.378 2.22766 12.378H13.7755C13.8634 12.378 13.9478 12.4129 14.01 12.4751C14.0722 12.5374 14.1072 12.6217 14.1072 12.7097L14.107 13.4011Z" fill="currentColor"/>
</g>
</svg>
