<svg width="24" height="24" viewBox="0 0 24 24" fill="none" xmlns="http://www.w3.org/2000/svg">
<g id="&#230;&#139;&#150;&#230;&#139;&#189;_&#230;&#156;&#170;&#230;&#139;&#150;&#230;&#151;&#182;">
<path id="Vector" d="M5.143 13.7143C4.28585 13.7143 3.42871 14.5714 3.42871 15.4285C3.42871 16.2857 4.28585 17.1428 5.143 17.1428C6.00014 17.1428 6.85728 16.2857 6.85728 15.4285C6.85728 14.5714 6.00014 13.7143 5.143 13.7143ZM18.8573 10.2857C19.7144 10.2857 20.5716 9.42855 20.5716 8.5714C20.5716 7.71426 19.7144 6.85712 18.8573 6.85712C18.0001 6.85712 17.143 7.71426 17.143 8.5714C17.143 9.42855 18.0001 10.2857 18.8573 10.2857ZM5.143 6.85712C4.28585 6.85712 3.42871 7.71426 3.42871 8.5714C3.42871 9.42855 4.28585 10.2857 5.143 10.2857C6.00014 10.2857 6.85728 9.42855 6.85728 8.5714C6.85728 7.71426 6.00014 6.85712 5.143 6.85712ZM18.8573 13.7143C18.0001 13.7143 17.143 14.5714 17.143 15.4285C17.143 16.2857 18.0001 17.1428 18.8573 17.1428C19.7144 17.1428 20.5716 16.2857 20.5716 15.4285C20.5716 14.5714 19.7144 13.7143 18.8573 13.7143ZM12.0001 6.85712C11.143 6.85712 10.2859 7.71426 10.2859 8.5714C10.2859 9.42855 11.143 10.2857 12.0001 10.2857C12.8573 10.2857 13.7144 9.42855 13.7144 8.5714C13.7144 7.71426 12.8573 6.85712 12.0001 6.85712ZM12.0001 13.7143C11.143 13.7143 10.2859 14.5714 10.2859 15.4285C10.2859 16.2857 11.143 17.1428 12.0001 17.1428C12.8573 17.1428 13.7144 16.2857 13.7144 15.4285C13.7144 14.5714 12.8573 13.7143 12.0001 13.7143Z" fill="#8C8C8C"/>
</g>
</svg>
