<svg t="1672795907677" class="icon" viewBox="0 0 1024 1024" version="1.1" xmlns="http://www.w3.org/2000/svg" p-id="2537" width="200" height="200"><path d="M904.50393 795.651268V225.084385c32.463366-10.869558 55.862285-41.503253 55.862286-77.623915 0-45.212738-36.647665-81.863473-81.864496-81.863473-35.721573 0-66.084091 22.890336-77.262688 54.798047H226.150158c-11.177574-31.907711-41.538045-54.79907-77.262688-54.79907-45.213761 0-81.864496 36.651758-81.864496 81.864496 0 35.530215 22.63758 65.76175 54.271045 77.086679v571.642379c-31.633465 11.32493-54.271044 41.555441-54.271045 77.084632 0 45.212738 36.652781 81.864496 81.864496 81.864496 34.495652 0 63.98222-21.342074 76.036767-51.532677h577.543786c12.05557 30.190603 41.546232 51.532677 76.035743 51.532677 45.217854 0 81.864496-36.651758 81.864496-81.864496-0.002047-36.120662-23.400966-66.753333-55.864332-77.622892z m-105.182574 56.789401H228.067834c-7.227612-27.548426-28.447912-49.415456-55.609529-57.570183V225.865167c26.077935-7.829316 46.683229-28.300556 54.682414-54.305836H800.249495c7.835456 25.473161 27.768437 45.63434 53.090149 53.80851V795.367813c-26.39516 8.519024-46.930869 30.065759-54.018288 57.072856z" p-id="2538"></path></svg>