<svg width="18" height="18" viewBox="0 0 18 18" fill="none" xmlns="http://www.w3.org/2000/svg">
<g id="&#231;&#155;&#145;&#230;&#142;&#167;&#233;&#161;&#185;&#230;&#143;&#144;&#231;&#164;&#186;">
<path id="Vector" d="M15.6238 6.2415C15.2633 5.39031 14.7492 4.62656 14.0921 3.96951C13.435 3.31246 12.6713 2.79831 11.8201 2.43777C10.939 2.06444 10.0025 1.87671 9.03825 1.87671C8.074 1.87671 7.13746 2.06657 6.25639 2.43777C5.40521 2.79831 4.64145 3.31244 3.9844 3.96951C3.32735 4.62656 2.8132 5.39031 2.45266 6.2415C2.07934 7.12257 1.8916 8.05911 1.8916 9.02336C1.8916 9.98761 2.08146 10.9242 2.45266 11.8052C2.8132 12.6564 3.32733 13.4202 3.9844 14.0772C4.64145 14.7343 5.40521 15.2484 6.25639 15.609C7.13746 15.9823 8.074 16.17 9.03825 16.17C10.0025 16.17 10.939 15.9801 11.8201 15.609C12.6713 15.2484 13.4351 14.7343 14.0921 14.0772C14.7492 13.4202 15.2633 12.6564 15.6238 11.8052C15.9972 10.9242 16.1849 9.98761 16.1849 9.02336C16.1849 8.05911 15.995 7.12257 15.6238 6.2415ZM9.03825 15.146C5.6612 15.146 2.9156 12.4005 2.9156 9.02339C2.9156 5.64634 5.6612 2.90074 9.03825 2.90074C12.4153 2.90074 15.1609 5.64634 15.1609 9.02339C15.1609 12.3983 12.4153 15.146 9.03825 15.146Z" fill="#4385F4"/>
<path id="Vector_2" d="M9.03858 5.30933C8.69723 5.30933 8.41992 5.5888 8.41992 5.92799V10.152C8.41992 10.4933 8.69725 10.7707 9.03858 10.7707C9.37779 10.7707 9.65725 10.4933 9.65725 10.152V5.92799C9.65725 5.58878 9.37777 5.30933 9.03858 5.30933ZM9.03858 11.4256C8.69723 11.4256 8.41992 11.705 8.41992 12.0442C8.41992 12.3834 8.69725 12.6629 9.03858 12.6629C9.37779 12.6629 9.65725 12.3834 9.65725 12.0442C9.65725 11.705 9.37777 11.4256 9.03858 11.4256Z" fill="#4385F4"/>
</g>
</svg>
