<svg width="18" height="18" viewBox="0 0 18 18" fill="none" xmlns="http://www.w3.org/2000/svg">
<g id="&#233;&#166;&#150;&#233;&#161;&#181;&#231;&#156;&#139;&#230;&#157;&#191;">
<path id="Vector" d="M17.2125 2.79272C17.1788 2.64742 17.0887 2.52147 16.9621 2.44257C16.8355 2.36366 16.6828 2.33827 16.5375 2.37197L13.6046 3.05146C13.5076 3.07389 13.4183 3.12167 13.3458 3.1899C13.2733 3.25814 13.2202 3.34439 13.192 3.43986C13.1637 3.53532 13.1613 3.63658 13.185 3.73328C13.2087 3.82998 13.2576 3.91867 13.3268 3.99028L13.9669 4.65234L10.5469 7.70334L8.77106 6.02147C8.66299 5.91917 8.51879 5.86387 8.37004 5.86766C8.22128 5.87146 8.08009 5.93404 7.97738 6.04171L4.16756 10.0366C3.9401 9.98907 3.7035 10.0132 3.49028 10.1055C3.27706 10.1979 3.09767 10.354 2.97677 10.5525C2.85586 10.7509 2.79938 10.9819 2.81507 11.2138C2.83076 11.4456 2.91786 11.6669 3.0644 11.8473C3.21094 12.0276 3.40973 12.1581 3.63346 12.221C3.85718 12.2838 4.09487 12.2757 4.31385 12.198C4.53284 12.1203 4.72238 11.9766 4.85643 11.7868C4.99048 11.597 5.06247 11.3703 5.0625 11.138C5.0625 11.0159 5.03831 10.9012 5.00231 10.7915L8.40431 7.22409L10.1486 8.87559C10.251 8.97248 10.386 9.0274 10.527 9.02949C10.6679 9.03157 10.8045 8.98066 10.9097 8.88684L14.7488 5.46234L15.4783 6.21778C15.5475 6.28937 15.6344 6.34133 15.7301 6.36837C15.8259 6.3954 15.9272 6.39654 16.0235 6.37166C16.1199 6.34678 16.2079 6.29678 16.2787 6.22676C16.3494 6.15674 16.4003 6.0692 16.4261 5.97309L17.2074 3.06553C17.2316 2.9764 17.2333 2.88268 17.2125 2.79272Z" fill="currentColor"/>
<path id="Vector_2" d="M16.3125 7.91831C16.1633 7.91831 16.0202 7.97758 15.9148 8.08307C15.8093 8.18855 15.75 8.33163 15.75 8.48081V12.9375C15.75 13.0867 15.6907 13.2298 15.5852 13.3352C15.4798 13.4407 15.3367 13.5 15.1875 13.5H2.8125C2.66332 13.5 2.52024 13.4407 2.41475 13.3352C2.30926 13.2298 2.25 13.0867 2.25 12.9375V2.8125C2.25 2.66332 2.30926 2.52024 2.41475 2.41475C2.52024 2.30926 2.66332 2.25 2.8125 2.25H12.1404C12.2896 2.25 12.4327 2.19074 12.5382 2.08525C12.6437 1.97976 12.7029 1.83668 12.7029 1.6875C12.7029 1.53832 12.6437 1.39524 12.5382 1.28975C12.4327 1.18426 12.2896 1.125 12.1404 1.125H2.8125C2.36495 1.125 1.93572 1.30279 1.61926 1.61926C1.30279 1.93572 1.125 2.36495 1.125 2.8125V12.9375C1.125 13.3851 1.30279 13.8143 1.61926 14.1307C1.93572 14.4472 2.36495 14.625 2.8125 14.625H15.1875C15.6351 14.625 16.0643 14.4472 16.3807 14.1307C16.6972 13.8143 16.875 13.3851 16.875 12.9375V8.48081C16.875 8.33163 16.8157 8.18855 16.7102 8.08307C16.6048 7.97758 16.4617 7.91831 16.3125 7.91831ZM16.0312 15.75H1.96875C1.81957 15.75 1.67649 15.8093 1.571 15.9148C1.46551 16.0202 1.40625 16.1633 1.40625 16.3125C1.40625 16.4617 1.46551 16.6048 1.571 16.7102C1.67649 16.8157 1.81957 16.875 1.96875 16.875H16.0312C16.1804 16.875 16.3235 16.8157 16.429 16.7102C16.5345 16.6048 16.5938 16.4617 16.5938 16.3125C16.5938 16.1633 16.5345 16.0202 16.429 15.9148C16.3235 15.8093 16.1804 15.75 16.0312 15.75Z" fill="currentColor"/>
</g>
</svg>
