<svg width="18" height="18" viewBox="0 0 18 18" fill="none" xmlns="http://www.w3.org/2000/svg">
<g id="&#230;&#151;&#165;&#229;&#191;&#151;&#231;&#174;&#161;&#231;&#144;&#134;">
<path id="Vector" d="M12.5998 10.791C11.7178 10.791 10.9978 11.511 10.9978 12.393C10.9978 13.275 11.7178 13.995 12.5998 13.995C13.4818 13.995 14.2018 13.275 14.2018 12.393C14.2018 11.511 13.4818 10.791 12.5998 10.791ZM12.6628 13.248C12.2218 13.248 11.8618 12.888 11.8618 12.447C11.8618 12.006 12.2218 11.646 12.6628 11.646C13.1038 11.646 13.4638 12.006 13.4638 12.447C13.4548 12.888 13.1038 13.248 12.6628 13.248ZM16.9918 11.601C16.9288 11.277 16.7218 11.079 16.4608 11.079H16.4248C15.9208 11.079 15.5068 10.674 15.5068 10.17C15.5068 10.044 15.5608 9.873 15.5878 9.819C15.7138 9.522 15.6058 9.171 15.3358 9L14.2558 8.415C13.9858 8.307 13.6798 8.37 13.4728 8.568C13.3378 8.703 12.9868 8.991 12.7348 8.991C12.4828 8.991 12.1318 8.703 11.9968 8.568C11.7988 8.37 11.4838 8.298 11.2138 8.406L11.1958 8.415L10.0978 9.009L10.0708 9.027C9.80977 9.198 9.71977 9.54 9.83677 9.828C9.84577 9.846 9.91777 10.017 9.91777 10.179C9.91777 10.683 9.50377 11.088 8.99977 11.088H8.95477C8.69377 11.088 8.48677 11.286 8.43277 11.61C8.37877 11.889 8.35177 12.168 8.34277 12.456C8.34277 12.816 8.42377 13.257 8.43277 13.302C8.49577 13.626 8.70277 13.824 8.96377 13.824H8.99977C9.50377 13.824 9.91777 14.238 9.91777 14.733C9.91777 14.859 9.86377 15.03 9.83677 15.084C9.71077 15.381 9.81877 15.732 10.0888 15.903L11.1418 16.479C11.4208 16.587 11.7268 16.524 11.9338 16.317C12.0598 16.182 12.4288 15.867 12.6898 15.867C12.9508 15.867 13.3018 16.173 13.4458 16.326C13.6528 16.551 13.9858 16.614 14.2648 16.479L15.3358 15.894L15.3628 15.876C15.6238 15.705 15.7138 15.363 15.5968 15.075C15.5518 14.967 15.5248 14.841 15.5158 14.724C15.5158 14.22 15.9298 13.815 16.4338 13.815H16.4788C16.7398 13.815 16.9468 13.617 17.0008 13.293C17.0008 13.284 17.0908 12.825 17.0908 12.447C17.0818 12.096 17.0008 11.655 16.9918 11.601ZM16.1818 13.005C15.3088 13.113 14.6608 13.86 14.6608 14.733C14.6608 14.931 14.7148 15.129 14.7508 15.255L13.9858 15.678C13.8868 15.579 13.7878 15.498 13.6708 15.399C13.3288 15.147 13.0048 15.021 12.6988 15.021C12.3928 15.021 12.0688 15.147 11.7358 15.39C11.6278 15.471 11.5288 15.552 11.4208 15.66L10.6828 15.246C10.7278 15.12 10.7728 14.913 10.7728 14.715C10.7728 13.833 10.1158 13.095 9.25177 12.978C9.22477 12.798 9.20677 12.609 9.19777 12.42C9.19777 12.24 9.22477 12.006 9.25177 11.862C10.1248 11.754 10.7728 11.007 10.7728 10.125C10.7728 9.927 10.7278 9.729 10.6828 9.603L11.4748 9.171C11.5378 9.234 11.6458 9.333 11.7898 9.432C12.1228 9.675 12.4468 9.792 12.7438 9.792C13.0408 9.792 13.3558 9.675 13.6888 9.441C13.8238 9.351 13.9408 9.252 14.0038 9.189L14.7598 9.612C14.7058 9.783 14.6698 9.963 14.6698 10.143C14.6698 11.025 15.3358 11.763 16.1908 11.871C16.2088 12.015 16.2448 12.249 16.2448 12.429C16.2268 12.636 16.1998 12.861 16.1818 13.005V13.005Z" fill='currentColor'/>
<path id="Vector_2" d="M8.2169 16.164H2.8439C1.7999 16.191 0.926902 15.453 0.899902 14.517V3.09602C0.926902 2.16002 1.7999 1.42202 2.8439 1.44902H12.2579C13.2929 1.44002 14.1479 2.16902 14.1749 3.09602V7.38002C14.0939 7.70402 13.7339 7.90202 13.3829 7.83002C13.1309 7.77602 12.9419 7.60502 12.8789 7.38002V3.09602C12.8519 2.79002 12.5639 2.54702 12.2129 2.54702H2.8439C2.4929 2.54702 2.2049 2.78102 2.1779 3.09602V14.508C2.2049 14.823 2.4929 15.066 2.8439 15.066H8.2079C8.5409 15.066 8.8199 15.309 8.8199 15.615C8.8199 15.912 8.5499 16.164 8.2169 16.164Z" fill='currentColor'/>
<path id="Vector_3" d="M10.3769 5.07603H4.69786C4.38286 5.07603 4.13086 4.83303 4.13086 4.52703C4.13086 4.22103 4.38286 3.97803 4.69786 3.97803H10.3769C10.6919 3.97803 10.9439 4.22103 10.9439 4.52703C10.9439 4.83303 10.6919 5.07603 10.3769 5.07603V5.07603ZM10.3769 8.07303H4.69786C4.38286 8.07303 4.13086 7.83003 4.13086 7.52403C4.13086 7.21803 4.38286 6.97503 4.69786 6.97503H10.3769C10.6919 6.97503 10.9439 7.21803 10.9439 7.52403C10.9439 7.83003 10.6919 8.07303 10.3769 8.07303ZM8.36086 11.07H4.51786C4.31086 11.07 4.13086 10.827 4.13086 10.521C4.13086 10.215 4.30186 9.97203 4.51786 9.97203H8.36986C8.57686 9.97203 8.75686 10.215 8.75686 10.521C8.75686 10.827 8.57686 11.07 8.36086 11.07Z" fill='currentColor'/>
</g>
</svg>
