<?xml version="1.0" standalone="no"?><!DOCTYPE svg PUBLIC "-//W3C//DTD SVG 1.1//EN" "http://www.w3.org/Graphics/SVG/1.1/DTD/svg11.dtd"><svg t="1667270141860" class="icon" viewBox="0 0 1024 1024" version="1.1" xmlns="http://www.w3.org/2000/svg" p-id="17897" width="18" height="18" xmlns:xlink="http://www.w3.org/1999/xlink"><path d="M720.896 737.28c-10.24 0-20.992-4.096-29.184-11.776-15.872-15.872-15.872-41.984 0-57.856l173.056-173.056-173.056-173.056c-15.872-15.872-15.872-41.984 0-57.856 15.872-15.872 41.984-15.872 57.856 0L951.808 465.92c15.872 15.872 15.872 41.984 0 57.856l-202.24 202.24c-8.192 7.168-18.432 11.264-28.672 11.264zM923.136 136.704h-819.2c-22.528 0-40.96-18.432-40.96-40.96s18.432-40.96 40.96-40.96h819.2c22.528 0 40.96 18.432 40.96 40.96s-18.432 40.96-40.96 40.96zM923.136 964.096h-819.2c-22.528 0-40.96-18.432-40.96-40.96s18.432-40.96 40.96-40.96h819.2c22.528 0 40.96 18.432 40.96 40.96s-18.432 40.96-40.96 40.96zM462.336 688.128h-358.4c-22.528 0-40.96-18.432-40.96-40.96s18.432-40.96 40.96-40.96h358.4c22.528 0 40.96 18.432 40.96 40.96s-18.432 40.96-40.96 40.96zM462.336 412.672h-358.4c-22.528 0-40.96-18.432-40.96-40.96s18.432-40.96 40.96-40.96h358.4c22.528 0 40.96 18.432 40.96 40.96s-18.432 40.96-40.96 40.96z" fill="#262626" p-id="17898"></path></svg>