<svg width="18" height="18" viewBox="0 0 18 18" fill="none" xmlns="http://www.w3.org/2000/svg">
<g id="&#230;&#182;&#136;&#230;&#129;&#175;">
<path id="Vector" d="M3.37546 11.0989V7.11431C3.37546 4.01362 5.89359 1.5 8.9999 1.5C12.1062 1.5 14.6243 4.01362 14.6243 7.11431V11.0989L15.6897 13.2261C15.8768 13.5994 15.6048 14.0385 15.1867 14.0385H2.81315C2.39502 14.0385 2.12315 13.5994 2.31009 13.2261L3.37546 11.0989ZM14.2767 12.9158L13.5588 11.4825C13.5197 11.4046 13.4994 11.3186 13.4993 11.2314V7.11431C13.4993 4.63369 11.4848 2.62294 8.9999 2.62294C6.51496 2.62294 4.50046 4.63369 4.50046 7.11431V11.2313C4.50046 11.3184 4.48002 11.4043 4.44103 11.4825L3.72309 12.9156H14.2767V12.9158ZM6.48421 15.5933C6.42741 15.5462 6.38045 15.4884 6.34604 15.4231C6.31162 15.3579 6.29041 15.2865 6.28364 15.213C6.27686 15.1396 6.28465 15.0655 6.30655 14.9951C6.32845 14.9246 6.36404 14.8592 6.41127 14.8026C6.50676 14.688 6.64376 14.6161 6.79223 14.6024C6.94071 14.5888 7.08853 14.6346 7.20328 14.7298C7.70788 15.1493 8.34372 15.3783 8.9999 15.3769C9.65592 15.3782 10.2916 15.1493 10.7962 14.73C10.9109 14.6348 11.0587 14.589 11.2072 14.6026C11.3557 14.6163 11.4927 14.6882 11.5882 14.8028C11.6354 14.8594 11.6709 14.9249 11.6928 14.9953C11.7147 15.0657 11.7225 15.1398 11.7157 15.2133C11.7089 15.2867 11.6877 15.3581 11.6532 15.4234C11.6188 15.4886 11.5718 15.5464 11.515 15.5934C10.8085 16.1805 9.9185 16.5013 8.9999 16.5C8.06859 16.5 7.18584 16.1756 6.48421 15.5931V15.5933Z" fill="#262626"/>
</g>
</svg>
