<?xml version="1.0" standalone="no"?><!DOCTYPE svg PUBLIC "-//W3C//DTD SVG 1.1//EN" "http://www.w3.org/Graphics/SVG/1.1/DTD/svg11.dtd"><svg t="1671938663477" class="icon" viewBox="0 0 1024 1024" version="1.1" xmlns="http://www.w3.org/2000/svg" p-id="8065" xmlns:xlink="http://www.w3.org/1999/xlink" width="48" height="48"><path d="M714.666667 132.266667c-21.333333-10.666667-46.933333-2.133333-57.6 19.2s-2.133333 46.933333 19.2 57.6C797.866667 270.933333 874.666667 394.666667 874.666667 533.333333c0 200.533333-162.133333 362.666667-362.666667 362.666667S149.333333 733.866667 149.333333 533.333333c0-138.666667 76.8-262.4 198.4-324.266666 21.333333-10.666667 29.866667-36.266667 19.2-57.6-10.666667-21.333333-36.266667-29.866667-57.6-19.2C157.866667 209.066667 64 362.666667 64 533.333333c0 247.466667 200.533333 448 448 448s448-200.533333 448-448c0-170.666667-93.866667-324.266667-245.333333-401.066666" fill="currentColor" p-id="8066"></path><path d="M469.333333 85.333333v448c0 23.466667 19.2 42.666667 42.666667 42.666667s42.666667-19.2 42.666667-42.666667V85.333333c0-23.466667-19.2-42.666667-42.666667-42.666666s-42.666667 19.2-42.666667 42.666666" fill="currentColor" p-id="8067"></path></svg>