<?xml version="1.0" standalone="no"?><!DOCTYPE svg PUBLIC "-//W3C//DTD SVG 1.1//EN" "http://www.w3.org/Graphics/SVG/1.1/DTD/svg11.dtd"><svg class="icon" width="32px" height="32.00px" viewBox="0 0 1024 1024" version="1.1" xmlns="http://www.w3.org/2000/svg"><path fill="currentColor" d="M98.592 896a30.72 30.72 0 0 0 27.2-16c83.68-147.712 236.224-238.88 401.568-240v224a32 32 0 0 0 19.136 29.44 30.08 30.08 0 0 0 33.696-6.72l370.656-384.032c5.856-6.016 9.152-14.176 9.152-22.72 0-8.544-3.296-16.704-9.152-22.72l-370.656-384a30.08 30.08 0 0 0-33.696-6.72 32 32 0 0 0-19.136 29.44v163.52C263.008 294.656 64.768 527.36 64 803.488c0.064 21.44 1.408 42.784 4 64 1.6 13.664 11.424 24.768 24.416 27.52l6.176 0.992z m459.648-320h-15.424c-159.456-2.4-311.904 67.776-417.024 192 19.2-239.808 203.648-429.696 435.232-448.032 15.968-1.504 28.16-15.392 28.128-32v-114.88l296.224 306.88-296.224 306.88V608c0-17.664-13.856-32-30.912-32z" /></svg>