<svg width="18" height="18" viewBox="0 0 18 18" fill="none" xmlns="http://www.w3.org/2000/svg">
<g id="Frame" clip-path="url(#clip0_1290_165)">
<path id="Vector" d="M17.0102 0.172363H0.990038C0.859395 0.17236 0.730042 0.198213 0.609437 0.248434C0.488832 0.298655 0.37936 0.37225 0.28733 0.464977C0.195301 0.557704 0.122534 0.667729 0.0732248 0.788709C0.0239155 0.90969 -0.00096131 1.03923 2.84121e-05 1.16987V13.3125C0.00199075 13.5745 0.106925 13.8251 0.292164 14.0104C0.477403 14.1956 0.728078 14.3005 0.990038 14.3025H17.0102C17.2722 14.3005 17.5228 14.1956 17.7081 14.0104C17.8933 13.8251 17.9982 13.5745 18.0002 13.3125V1.16987C18.0002 0.906611 17.8961 0.654021 17.7107 0.467166C17.5252 0.28031 17.2734 0.174343 17.0102 0.172363V0.172363ZM16.7252 13.035H1.27504V1.46238H16.7252V13.035Z" fill="#262626"/>
<path id="Vector_2" d="M6.16504 16.3201H11.6401C11.8901 16.3201 12.0151 16.4451 12.0151 16.6951V17.4526C12.0151 17.7026 11.8901 17.8276 11.6401 17.8276H6.16504C5.91504 17.8276 5.79004 17.7026 5.79004 17.4526V16.6951C5.79004 16.4451 5.91504 16.3201 6.16504 16.3201Z" fill="#262626"/>
<path id="Vector_3" d="M7.7177 6.89993L9.90772 9.32245L10.1102 9.59995L14.1303 6.68242L13.2978 5.53491L10.3352 7.67993L7.8227 4.90491L6.84019 5.78992L3.47266 8.51244L4.36516 9.61495L7.7177 6.89993Z" fill="#262626"/>
</g>
<defs>
<clipPath id="clip0_1290_165">
<rect width="18" height="18" fill="white"/>
</clipPath>
</defs>
</svg>
