<svg width="18" height="18" viewBox="0 0 18 18" fill="none" xmlns="http://www.w3.org/2000/svg">
<g id="&#230;&#144;&#156;&#231;&#180;&#162;">
<path id="Vector" d="M15.9889 15.2763L12.8359 12.1232C13.7937 10.9968 14.3143 9.58457 14.3143 8.09122C14.3143 6.42508 13.6657 4.85922 12.4881 3.68161C11.3105 2.50401 9.74467 1.85547 8.07853 1.85547C6.41238 1.85547 4.84652 2.50401 3.66891 3.68161C2.49132 4.8592 1.84277 6.42508 1.84277 8.09122C1.84277 9.75736 2.49132 11.3232 3.66891 12.5008C4.84651 13.6784 6.41238 14.327 8.07853 14.327C9.57188 14.327 10.9863 13.8043 12.1105 12.8486L15.2636 16.0016C15.3638 16.1019 15.494 16.151 15.6262 16.151C15.7585 16.151 15.8886 16.1019 15.9889 16.0016C16.1894 15.8011 16.1894 15.4768 15.9889 15.2763H15.9889ZM4.39427 11.7776C2.36121 9.74455 2.36121 6.43788 4.39427 4.40695C5.37773 3.42349 6.6876 2.87948 8.08067 2.87948C9.47374 2.87948 10.7815 3.42135 11.7671 4.40695C13.8001 6.44002 13.8001 9.74669 11.7671 11.7776C9.73187 13.8086 6.42522 13.8086 4.39427 11.7776Z" fill="#262626"/>
</g>
</svg>
