<svg width="1024" height="1024" xmlns="http://www.w3.org/2000/svg" data-spm-anchor-id="a313x.7781069.0.i8" p-id="2750" version="1.1" class="icon" t="1667460354881">
<path data-spm-anchor-id="a313x.7781069.0.i7" p-id="2751" d="m333.70546,202.94838a230.1381,222.82367 0 0 1 -162.7189,25.12574a452.58232,438.198 0 0 0 -73.91335,117.69958a230.19026,222.87418 0 0 1 61.15977,151.43626a230.24242,222.92468 0 0 1 -68.01906,158.33006a447.2879,433.07185 0 0 0 81.42465,136.08304a230.2685,222.94993 0 0 1 174.69005,22.37327a230.19026,222.87418 0 0 1 104.29763,125.14893a447.80951,433.57689 0 0 0 141.51511,-3.03024a230.24242,222.92468 0 0 1 107.6099,-136.2093a230.19026,222.87418 0 0 1 166.03118,-24.44394a452.58232,438.198 0 0 0 68.33203,-120.80558a230.1381,222.82367 0 0 1 -58.89073,-148.98682c0,-55.09987 20.81258,-106.81597 56.7521,-146.71414a447.8356,433.60214 0 0 0 -62.25517,-110.52802a230.2685,222.94993 0 0 1 -172.44709,-22.97932a230.34675,223.02569 0 0 1 -109.48773,-143.48188a447.2879,433.07185 0 0 0 -151.2433,0.02525a230.08594,222.77317 0 0 1 -102.83709,120.95709zm36.77411,-184.11235c93.42188,-25.252 194.01602,-25.60553 290.17639,1.91915a152.31261,147.4717 0 0 0 231.93768,136.89111a525.92189,509.20663 0 0 1 128.9441,225.14686a152.13005,147.29493 0 0 0 -68.07122,122.85099a152.18221,147.34544 0 0 0 69.89688,124.03784a526.23486,509.50966 0 0 1 -55.76102,134.51742a527.14769,510.39348 0 0 1 -78.19062,100.32621a152.23437,147.39594 0 0 0 -150.53911,1.01008a152.26045,147.42119 0 0 0 -76.10414,131.96697a526.02621,509.30764 0 0 1 -279.43105,6.06048a152.20829,147.37069 0 0 0 -76.13023,-123.96208a152.26045,147.42119 0 0 0 -155.15543,1.59088a525.58284,508.87836 0 0 1 -152.0518,-254.18666a152.26045,147.42119 0 0 0 79.9902,-129.79529c0,-53.86252 -29.83658,-101.00801 -74.3828,-126.71455a527.14769,510.39348 0 0 1 50.67524,-115.72993a526.23486,509.50966 0 0 1 92.4308,-114.03804a152.18221,147.34544 0 0 0 145.87062,-3.38377a152.13005,147.29493 0 0 0 75.8955,-118.50765zm150.30438,608.06823a112.25231,108.68462 0 1 0 0,-217.41974a112.25231,108.68462 0 0 0 0,217.41974zm0,75.75601a190.49509,184.44063 0 1 1 0,-368.93176a190.49509,184.44063 0 0 1 0,368.93176z"/>
</svg>