<svg width="18" height="18" viewBox="0 0 18 18" fill="none" xmlns="http://www.w3.org/2000/svg">
<g id="&#231;&#179;&#187;&#231;&#187;&#159;&#231;&#174;&#161;&#231;&#144;&#134;">
<path id="Vector" d="M3.375 2.81248C3.22582 2.81248 3.08274 2.87174 2.97725 2.97723C2.87176 3.08272 2.8125 3.22579 2.8125 3.37498V6.74998C2.8125 6.89916 2.87176 7.04224 2.97725 7.14773C3.08274 7.25322 3.22582 7.31248 3.375 7.31248H6.75C6.89918 7.31248 7.04226 7.25322 7.14775 7.14773C7.25324 7.04224 7.3125 6.89916 7.3125 6.74998V3.37498C7.3125 3.22579 7.25324 3.08272 7.14775 2.97723C7.04226 2.87174 6.89918 2.81248 6.75 2.81248H3.375ZM3.375 1.68748H6.75C7.19755 1.68748 7.62678 1.86527 7.94324 2.18174C8.25971 2.4982 8.4375 2.92743 8.4375 3.37498V6.74998C8.4375 7.19753 8.25971 7.62675 7.94324 7.94322C7.62678 8.25969 7.19755 8.43748 6.75 8.43748H3.375C2.92745 8.43748 2.49822 8.25969 2.18176 7.94322C1.86529 7.62675 1.6875 7.19753 1.6875 6.74998V3.37498C1.6875 2.92743 1.86529 2.4982 2.18176 2.18174C2.49822 1.86527 2.92745 1.68748 3.375 1.68748V1.68748ZM3.375 10.6875C3.22582 10.6875 3.08274 10.7467 2.97725 10.8522C2.87176 10.9577 2.8125 11.1008 2.8125 11.25V14.625C2.8125 14.7742 2.87176 14.9172 2.97725 15.0227C3.08274 15.1282 3.22582 15.1875 3.375 15.1875H6.75C6.89918 15.1875 7.04226 15.1282 7.14775 15.0227C7.25324 14.9172 7.3125 14.7742 7.3125 14.625V11.25C7.3125 11.1008 7.25324 10.9577 7.14775 10.8522C7.04226 10.7467 6.89918 10.6875 6.75 10.6875H3.375ZM3.375 9.56248H6.75C7.19755 9.56248 7.62678 9.74027 7.94324 10.0567C8.25971 10.3732 8.4375 10.8024 8.4375 11.25V14.625C8.4375 15.0725 8.25971 15.5018 7.94324 15.8182C7.62678 16.1347 7.19755 16.3125 6.75 16.3125H3.375C2.92745 16.3125 2.49822 16.1347 2.18176 15.8182C1.86529 15.5018 1.6875 15.0725 1.6875 14.625V11.25C1.6875 10.8024 1.86529 10.3732 2.18176 10.0567C2.49822 9.74027 2.92745 9.56248 3.375 9.56248V9.56248ZM11.25 10.6875C11.1008 10.6875 10.9577 10.7467 10.8523 10.8522C10.7468 10.9577 10.6875 11.1008 10.6875 11.25V14.625C10.6875 14.7742 10.7468 14.9172 10.8523 15.0227C10.9577 15.1282 11.1008 15.1875 11.25 15.1875H14.625C14.7742 15.1875 14.9173 15.1282 15.0227 15.0227C15.1282 14.9172 15.1875 14.7742 15.1875 14.625V11.25C15.1875 11.1008 15.1282 10.9577 15.0227 10.8522C14.9173 10.7467 14.7742 10.6875 14.625 10.6875H11.25ZM11.25 9.56248H14.625C15.0726 9.56248 15.5018 9.74027 15.8182 10.0567C16.1347 10.3732 16.3125 10.8024 16.3125 11.25V14.625C16.3125 15.0725 16.1347 15.5018 15.8182 15.8182C15.5018 16.1347 15.0726 16.3125 14.625 16.3125H11.25C10.8024 16.3125 10.3732 16.1347 10.0568 15.8182C9.74029 15.5018 9.5625 15.0725 9.5625 14.625V11.25C9.5625 10.8024 9.74029 10.3732 10.0568 10.0567C10.3732 9.74027 10.8024 9.56248 11.25 9.56248ZM10.5868 4.68054C10.5345 4.73278 10.493 4.79482 10.4647 4.86311C10.4364 4.93139 10.4218 5.00459 10.4218 5.07851C10.4218 5.15243 10.4364 5.22563 10.4647 5.29391C10.493 5.3622 10.5345 5.42424 10.5868 5.47648L12.5556 7.44523C12.6078 7.49753 12.6698 7.53902 12.7381 7.56733C12.8064 7.59563 12.8796 7.6102 12.9535 7.6102C13.0275 7.6102 13.1006 7.59563 13.1689 7.56733C13.2372 7.53902 13.2993 7.49753 13.3515 7.44523L15.3203 5.47648C15.3725 5.42424 15.414 5.3622 15.4423 5.29391C15.4707 5.22563 15.4852 5.15243 15.4852 5.07851C15.4852 5.00459 15.4707 4.93139 15.4423 4.86311C15.414 4.79482 15.3725 4.73278 15.3203 4.68054L13.3515 2.71179C13.2993 2.65949 13.2372 2.618 13.1689 2.5897C13.1006 2.56139 13.0275 2.54682 12.9535 2.54682C12.8796 2.54682 12.8064 2.56139 12.7381 2.5897C12.6698 2.618 12.6078 2.65949 12.5556 2.71179L10.5868 4.68054V4.68054ZM9.79144 3.88517L11.7602 1.91642C11.9169 1.75969 12.1029 1.63536 12.3077 1.55054C12.5124 1.46572 12.7319 1.42206 12.9535 1.42206C13.1752 1.42206 13.3946 1.46572 13.5994 1.55054C13.8041 1.63536 13.9902 1.75969 14.1469 1.91642L16.1156 3.88517C16.2724 4.04187 16.3967 4.22791 16.4815 4.43267C16.5663 4.63742 16.61 4.85688 16.61 5.07851C16.61 5.30014 16.5663 5.5196 16.4815 5.72435C16.3967 5.92911 16.2724 6.11515 16.1156 6.27185L14.1469 8.2406C13.9902 8.39733 13.8041 8.52166 13.5994 8.60648C13.3946 8.6913 13.1752 8.73496 12.9535 8.73496C12.7319 8.73496 12.5124 8.6913 12.3077 8.60648C12.1029 8.52166 11.9169 8.39733 11.7602 8.2406L9.79144 6.27185C9.63471 6.11515 9.51038 5.92911 9.42556 5.72435C9.34074 5.5196 9.29708 5.30014 9.29708 5.07851C9.29708 4.85688 9.34074 4.63742 9.42556 4.43267C9.51038 4.22791 9.63471 4.04187 9.79144 3.88517V3.88517Z" fill='currentColor'/>
</g>
</svg>
