<?xml version="1.0" standalone="no"?><!DOCTYPE svg PUBLIC "-//W3C//DTD SVG 1.1//EN" "http://www.w3.org/Graphics/SVG/1.1/DTD/svg11.dtd"><svg class="icon" width="32px" height="32.00px" viewBox="0 0 1024 1024" version="1.1" xmlns="http://www.w3.org/2000/svg"><path fill="currentColor" d="M473.344 105.472a32 32 0 0 1 9.28 22.528v177.6C750.272 329.44 960 552.32 960 823.68c0 9.632-0.576 20.864-1.728 33.728l-0.96 9.92a32 32 0 0 1-55.552 18.176 581.536 581.536 0 0 0-43.776-44.224 636.896 636.896 0 0 0-375.36-157.728v173.696a32 32 0 0 1-54.56 22.72L82.976 538.144a64 64 0 0 1-4.16-86.464l4.16-4.48L428.064 105.28a32 32 0 0 1 45.28 0.192zM128.064 492.64l290.528 287.84v-165.824l68.736 5.056a700.832 700.832 0 0 1 407.264 168.544c-17.184-220.352-193.12-398.848-417.664-418.88l-58.336-5.248V204.8L128 492.672z" /></svg>