<svg width="18" height="18" viewBox="0 0 18 18" fill="none" xmlns="http://www.w3.org/2000/svg">
<path id="&#231;&#148;&#168;&#230;&#136;&#183;" d="M9 0C4.04357 0 0 4.02145 0 9C0 13.9564 4.02145 18 9 18C13.9564 18 18 13.9786 18 9C18 4.04357 13.9765 0 9 0ZM9 16.7272C4.73123 16.7272 1.27279 13.2688 1.27279 9C1.27279 4.73123 4.73123 1.27279 9 1.27279C13.2688 1.27279 16.7272 4.73123 16.7272 9C16.7272 13.2688 13.2688 16.7272 9 16.7272ZM13.6066 13.0838C13.2366 11.6682 12.2413 10.5603 10.9685 9.99531C11.9336 9.38003 12.569 8.30228 12.569 7.08177C12.569 5.17359 11.0188 3.62332 9.11059 3.62332C7.20241 3.62332 5.65214 5.17359 5.65214 7.08177C5.65214 8.31233 6.28753 9.39008 7.25268 9.99531C5.96984 10.5503 4.97453 11.6682 4.60456 13.0838C4.52212 13.4115 4.71716 13.7513 5.04491 13.8338C5.09719 13.8438 5.14745 13.8539 5.19973 13.8539C5.47721 13.8539 5.72252 13.6689 5.79491 13.3914C6.18499 11.8834 7.55027 10.8358 9.09853 10.8358C10.6468 10.8358 12.0161 11.8834 12.4062 13.3914C12.4886 13.7192 12.8264 13.9142 13.1562 13.8318C13.494 13.7513 13.6991 13.4115 13.6066 13.0838ZM9.1126 4.85389C10.3432 4.85389 11.3385 5.8492 11.3385 7.07976C11.3385 8.31032 10.3432 9.30563 9.1126 9.30563C7.88204 9.30563 6.88673 8.31032 6.88673 7.07976C6.88673 5.8492 7.88204 4.85389 9.1126 4.85389Z" fill="currentColor"/>
</svg>
