<?xml version="1.0" standalone="no"?><!DOCTYPE svg PUBLIC "-//W3C//DTD SVG 1.1//EN" "http://www.w3.org/Graphics/SVG/1.1/DTD/svg11.dtd"><svg t="1672735028041" class="icon" viewBox="0 0 1024 1024" version="1.1" xmlns="http://www.w3.org/2000/svg" p-id="3178" xmlns:xlink="http://www.w3.org/1999/xlink" width="48" height="48"><path d="M1002.666667 260.266667c-12.8-8.533333-29.866667-4.266667-42.666667 4.266666L729.6 426.666667l-4.266667-4.266667V298.666667c0-72.533333-55.466667-128-128-128h-140.8c-25.6 0-42.666667 17.066667-42.666666 42.666666s17.066667 42.666667 42.666666 42.666667H597.333333c25.6 0 42.666667 17.066667 42.666667 42.666667v140.8c0 12.8 4.266667 21.333333 12.8 29.866666l42.666667 42.666667c12.8 12.8 38.4 17.066667 55.466666 4.266667L938.666667 384v341.333333c0 25.6 17.066667 42.666667 42.666666 42.666667s42.666667-17.066667 42.666667-42.666667V298.666667c0-17.066667-8.533333-29.866667-21.333333-38.4zM712.533333 652.8l-469.333333-469.333333-170.666667-170.666667C55.466667-4.266667 29.866667-4.266667 12.8 12.8s-17.066667 42.666667 0 59.733333L110.933333 170.666667C46.933333 179.2 0 234.666667 0 298.666667v426.666666c0 72.533333 55.466667 128 128 128h469.333333c51.2 0 98.133333-34.133333 119.466667-76.8l234.666667 234.666667c8.533333 8.533333 21.333333 12.8 29.866666 12.8s21.333333-4.266667 29.866667-12.8c17.066667-17.066667 17.066667-42.666667 0-59.733333l-298.666667-298.666667zM640 725.333333c0 25.6-17.066667 42.666667-42.666667 42.666667H128c-25.6 0-42.666667-17.066667-42.666667-42.666667V298.666667c0-25.6 17.066667-42.666667 42.666667-42.666667h68.266667L640 699.733333v25.6z" p-id="3179"></path></svg>