<svg width="18" height="18" viewBox="0 0 18 18" fill="none" xmlns="http://www.w3.org/2000/svg">
<g id="&#231;&#179;&#187;&#231;&#187;&#159;&#229;&#145;&#138;&#232;&#173;&#166;">
<path id="Vector" d="M15.2459 15.5092H14.1209V8.17385C14.1209 6.81155 13.5865 5.52834 12.6162 4.55803C11.6459 3.58772 10.3609 3.05334 9.00039 3.05334C7.63984 3.05334 6.35488 3.58772 5.38457 4.55803C4.41426 5.52834 3.87988 6.81331 3.87988 8.17385V15.5092H2.75488V8.17385C2.75488 7.33362 2.92012 6.51799 3.24883 5.74807C3.56523 5.00452 4.01523 4.33655 4.59004 3.7635C5.16484 3.1887 5.83281 2.7387 6.57461 2.42229C7.34453 2.09534 8.16191 1.92834 9.00039 1.92834C9.84062 1.92834 10.6562 2.09358 11.4262 2.42229C12.1697 2.7387 12.8377 3.1887 13.4107 3.7635C13.9855 4.33831 14.4355 5.00627 14.752 5.74807C15.0789 6.51799 15.2459 7.33538 15.2459 8.17385V15.5092Z" fill='currentColor'/>
<path id="Vector_2" d="M16.2277 15.5778H1.77148C1.46035 15.5778 1.20898 15.3264 1.20898 15.0153C1.20898 14.7041 1.46035 14.4528 1.77148 14.4528H16.2277C16.5389 14.4528 16.7902 14.7041 16.7902 15.0153C16.7902 15.3264 16.5389 15.5778 16.2277 15.5778ZM8.99961 10.9951C8.68848 10.9951 8.43711 10.7438 8.43711 10.4326V5.81311C8.43711 5.50198 8.68848 5.25061 8.99961 5.25061C9.31074 5.25061 9.56211 5.50198 9.56211 5.81311V10.4326C9.56211 10.742 9.31074 10.9951 8.99961 10.9951ZM8.99961 12.7389C8.68848 12.7389 8.43711 12.4875 8.43711 12.1764V12.0938C8.43711 11.7826 8.68848 11.5313 8.99961 11.5313C9.31074 11.5313 9.56211 11.7826 9.56211 12.0938V12.1764C9.56211 12.4875 9.31074 12.7389 8.99961 12.7389Z" fill='currentColor'/>
</g>
</svg>
